<?xml version="1.0" encoding="utf-8"?>
<!-- Generator: Adobe Illustrator 16.0.0, SVG Export Plug-In . SVG Version: 6.00 Build 0)  -->
<!DOCTYPE svg PUBLIC "-//W3C//DTD SVG 1.1//EN" "http://www.w3.org/Graphics/SVG/1.1/DTD/svg11.dtd">
<svg version="1.1" xmlns="http://www.w3.org/2000/svg" xmlns:xlink="http://www.w3.org/1999/xlink" x="0px" y="0px"
	 width="563.032px" height="318.448px" viewBox="0 0 563.032 318.448" enable-background="new 0 0 563.032 318.448"
	 xml:space="preserve">
<g id="Ebene_1" display="none">
	<g display="inline">
		<g>
			<path d="M80.979,235.687c37.46-33.747,78.068-63.929,123.201-86.659c46.127-23.23,97.941-33.448,142.745-59.402
				c2.788-1.615,0.272-5.937-2.523-4.317c-22.522,13.047-47.062,21.899-71.518,30.549c-24.233,8.571-48.192,17.363-71.227,28.853
				c-45.535,22.714-86.51,53.475-124.212,87.441C75.043,234.313,78.59,237.838,80.979,235.687L80.979,235.687z"/>
		</g>
	</g>
	<g display="inline">
		<g>
			<path d="M62.859,228.729c13.567,19.753,36.932,28.51,55.855,41.924c7.473,5.298,14.214,14.722,23.987,15.511
				c4.091,0.33,8.37-1.501,12.091-2.918c7.336-2.791,14.661-5.624,21.979-8.467c29.19-11.338,57.11-25.505,86.412-36.602
				c28.976-10.974,58.525-20.356,87.929-30.096c22.602-7.487,45.318-14.25,68.208-20.8c22.37-6.402,44.641-13.353,65.753-23.237
				c15.984-7.483,31.525-16.515,45.724-26.999c13.31-9.829,27.163-22.244,32.116-38.591c0.937-3.094-3.89-4.406-4.822-1.329
				c-6.529,21.552-29.35,36.343-47.496,47.426c-22.09,13.491-45.693,23.435-70.334,31.255c-28.305,8.983-57.06,16.308-85.242,25.713
				c-29.366,9.8-58.886,19.149-87.932,29.879c-20.028,7.398-39.578,15.753-58.916,24.788c-10.726,5.012-21.704,9.466-32.729,13.771
				c-9.192,3.59-18.427,7.706-27.893,10.513c-7.629,2.262-12.826-2.89-18.183-7.674c-6.178-5.519-13.158-10.024-20.217-14.316
				c-15.011-9.128-31.755-17.399-41.972-32.274C65.364,223.565,61.028,226.063,62.859,228.729L62.859,228.729z"/>
		</g>
	</g>
	<g display="inline">
		<g>
			<path d="M345.643,77.62c33.356,7.365,67.708,6.318,101.566,9.313c16.98,1.501,33.434,5.065,50.545,5.113
				c17.792,0.05,35.723-1.331,53.05,3.638c3.106,0.891,4.423-3.934,1.33-4.821c-15.946-4.573-32.508-4.055-48.928-3.852
				c-8.447,0.104-16.883-0.004-25.285-0.939c-8.432-0.938-16.766-2.682-25.215-3.6c-35.204-3.825-70.979-2-105.734-9.673
				C343.83,72.104,342.495,76.925,345.643,77.62L345.643,77.62z"/>
		</g>
	</g>
	<g display="inline">
		<g>
			<path d="M102.881,298.142c10.703-6.91,21.837-14.102,35.04-13.981c3.226,0.029,3.223-4.971,0-5
				c-14.128-0.128-26.082,7.251-37.563,14.663C97.66,295.565,100.164,299.896,102.881,298.142L102.881,298.142z"/>
		</g>
	</g>
	<g display="inline">
		<g>
			<path d="M70.911,314.87c6.559-2.13,12.747-5.081,18.732-8.488c2.801-1.596,0.283-5.916-2.523-4.318
				c-5.616,3.198-11.38,5.986-17.538,7.984C66.529,311.039,67.835,315.868,70.911,314.87L70.911,314.87z"/>
		</g>
	</g>
	<g display="inline">
		<g>
			<path d="M25.276,256.161c-9.798,5.688-19.091,13.093-23.878,23.628c-2.15,4.732-1.655,7.93,0.361,12.632
				c1.811,4.223,4.339,7.902,7.5,11.226c12.645,13.293,34.077,16.918,51.449,13.703c3.168-0.587,1.822-5.405-1.329-4.822
				c-14.94,2.766-32.072-0.265-44.009-10.031c-2.869-2.348-5.237-5.192-7.179-8.338c-2.732-4.423-4.067-8.345-1.868-13.185
				c4.155-9.144,13.051-15.604,21.476-20.494C30.586,258.861,28.07,254.54,25.276,256.161L25.276,256.161z"/>
		</g>
	</g>
	<g display="inline">
		<g>
			<path d="M66.308,234.645c-7.106-0.195-13.22,2.962-18.842,7.034c-2.584,1.871-0.093,6.212,2.523,4.316
				c4.911-3.556,10.075-6.522,16.319-6.351C69.534,239.733,69.525,234.733,66.308,234.645L66.308,234.645z"/>
		</g>
	</g>
	<g display="inline">
		<g>
			<path d="M350.824,70.612c9.874,1.28,18.774-4.98,26.239-10.641c9.083-6.887,17.957-14.015,26.685-21.346
				c18.519-15.555,39.557-31.828,64.66-33.49c23.2-1.536,43.478,13.42,59.885,28.139c8.265,7.415,14.642,15.72,17.135,26.733
				c2.524,11.153-1,22.692-7.983,31.498c-1.981,2.498,1.532,6.061,3.535,3.535c13.858-17.474,12.757-39.793-0.926-57.019
				c-6.843-8.615-16.498-15.751-25.407-22.083c-9.749-6.928-20.745-12.875-32.613-15.03c-24.163-4.39-48.396,7.799-67.039,22.138
				C403.95,31.541,393.689,41,382.587,49.419c-8.92,6.764-19.577,17.773-31.763,16.193
				C347.633,65.199,347.673,70.204,350.824,70.612L350.824,70.612z"/>
		</g>
	</g>
</g>
<g id="Ebene_2" display="none">
</g>
<g id="Ebene_3">
	<g>
		<line stroke="#000000" stroke-width="3" stroke-miterlimit="10" x1="37.792" y1="270.64" x2="238.114" y2="70.315"/>
		<line stroke="#000000" stroke-width="3" stroke-miterlimit="10" x1="70.131" y1="279.591" x2="270.454" y2="79.267"/>
		<line fill="none" stroke="#000000" stroke-width="3" stroke-miterlimit="10" x1="37.792" y1="270.64" x2="70.131" y2="279.591"/>
		<line fill="none" stroke="#000000" stroke-width="3" stroke-miterlimit="10" x1="238.114" y1="70.315" x2="270.454" y2="79.267"/>
		<line fill="none" stroke="#000000" stroke-width="3" stroke-miterlimit="10" x1="37.792" y1="270.64" x2="6.227" y2="311.921"/>
		<line fill="none" stroke="#000000" stroke-width="3" stroke-miterlimit="10" x1="6.227" y1="311.921" x2="70.131" y2="279.591"/>
	</g>
</g>
</svg>
